<?xml version="1.0" encoding="UTF-8"?>
<svg version="1.1" xmlns="http://www.w3.org/2000/svg" width="500" height="500">
<path d="M0 0 C6.68122755 5.61830498 10.94243206 11.53019864 11.75 20.3125 C11.8428125 21.19035156 11.935625 22.06820312 12.03125 22.97265625 C12.78120168 36.30304738 5.27505866 43.08242961 -3.25 53.3125 C20.51 53.6425 44.27 53.9725 68.75 54.3125 C68.42 46.3925 68.09 38.4725 67.75 30.3125 C66.43 29.3225 65.11 28.3325 63.75 27.3125 C64.23434542 22.80764137 65.69461327 20.90737605 68.93359375 17.80859375 C70.20106445 16.57399414 70.20106445 16.57399414 71.49414062 15.31445312 C72.82735352 14.04504883 72.82735352 14.04504883 74.1875 12.75 C75.9406406 11.06581031 77.68953036 9.37718159 79.43359375 7.68359375 C80.21275146 6.94036865 80.99190918 6.19714355 81.79467773 5.43139648 C83.62303314 3.45008839 84.70700835 1.77892593 85.75 -0.6875 C86.41 -0.6875 87.07 -0.6875 87.75 -0.6875 C87.75 24.0625 87.75 48.8125 87.75 74.3125 C55.41 74.3125 23.07 74.3125 -10.25 74.3125 C-10.58 73.3225 -10.91 72.3325 -11.25 71.3125 C-12.24 70.9825 -13.23 70.6525 -14.25 70.3125 C-14.58 69.6525 -14.91 68.9925 -15.25 68.3125 C-17.7646547 69.39020916 -19.21928225 70.27743644 -21.04361129 72.35986304 C-23.8191473 74.81619097 -25.13878719 74.8103535 -28.80221939 74.80469131 C-29.93880375 74.81265551 -31.07538811 74.8206197 -32.24641442 74.82882524 C-33.49543031 74.81717387 -34.74444619 74.8055225 -36.03131104 74.79351807 C-37.37120189 74.79526208 -38.71109141 74.79876387 -40.05097365 74.80387473 C-43.73622043 74.81283213 -47.42100348 74.79680105 -51.10619116 74.77676249 C-55.07889141 74.75951265 -59.05156483 74.76533243 -63.02429199 74.76837158 C-69.90839093 74.77047051 -76.7923384 74.75790464 -83.67639923 74.73542023 C-93.62960905 74.70293263 -103.58274551 74.69249654 -113.53600261 74.68746826 C-129.683874 74.67871051 -145.83166465 74.65208193 -161.97949219 74.61425781 C-177.66698807 74.57755013 -193.35446203 74.54923229 -209.04199219 74.53222656 C-210.4920957 74.53065022 -210.4920957 74.53065022 -211.97149423 74.52904204 C-216.82125064 74.52382194 -221.6710072 74.5187671 -226.52076387 74.51379442 C-266.76389877 74.47231745 -307.00694477 74.40185597 -347.25 74.3125 C-347.31335037 74.92987534 -347.37670074 75.54725067 -347.44197083 76.18333435 C-347.52791 76.99351517 -347.61384918 77.80369598 -347.70239258 78.63842773 C-347.78636795 79.44142807 -347.87034332 80.24442841 -347.9568634 81.07176208 C-349.06798976 89.56521864 -353.82454162 97.83427158 -360.53125 103.10546875 C-366.32202943 107.06312807 -370.20868262 108.45219249 -377.3125 108.4375 C-378.56160156 108.44007813 -379.81070312 108.44265625 -381.09765625 108.4453125 C-384.25 108.3125 -384.25 108.3125 -386.25 107.3125 C-385.89123503 104.59529647 -385.52168344 103.54242998 -383.39453125 101.7421875 C-382.62496094 101.22914063 -381.85539062 100.71609375 -381.0625 100.1875 C-373.08098547 94.23625944 -369.24702823 85.90764642 -367.25 76.3125 C-366.8199197 71.54261435 -366.73972529 66.78731846 -366.6875 62 C-366.29753947 34.45723197 -366.29753947 34.45723197 -358.25 26.3125 C-356.950625 24.9821875 -356.950625 24.9821875 -355.625 23.625 C-347.68490616 17.55316353 -337.37833354 15.36562676 -327.8371582 13.09960938 C-323.43086456 12.0259023 -320.11886524 10.74820299 -316.25 8.3125 C-313.775 7.8175 -313.775 7.8175 -311.25 7.3125 C-311.25 22.8225 -311.25 38.3325 -311.25 54.3125 C-294.42 54.3125 -277.59 54.3125 -260.25 54.3125 C-258.27058562 50.35367125 -258.5463527 45.60411462 -259.25 41.3125 C-261.10285324 39.08151344 -262.5310869 38.50202448 -265.25 37.3125 C-264.68564197 33.82100501 -263.6804378 32.49322073 -260.9375 30.3125 C-257.03170668 27.05293794 -253.40590758 23.59501825 -249.8125 20 C-249.01428833 19.20819336 -249.01428833 19.20819336 -248.19995117 18.40039062 C-245.37490337 15.6212276 -245.37490337 15.6212276 -243.25 12.3125 C-241.93 12.3125 -240.61 12.3125 -239.25 12.3125 C-239.25 26.1725 -239.25 40.0325 -239.25 54.3125 C-220.44 54.3125 -201.63 54.3125 -182.25 54.3125 C-182.25 51.3425 -182.25 48.3725 -182.25 45.3125 C-183.03375 45.003125 -183.8175 44.69375 -184.625 44.375 C-187.25 43.3125 -187.25 43.3125 -189.25 42.3125 C-188.69793598 38.39312288 -186.91801189 36.63044743 -184.13671875 33.90625 C-183.30076172 33.07996094 -182.46480469 32.25367188 -181.60351562 31.40234375 C-180.72373047 30.54769531 -179.84394531 29.69304687 -178.9375 28.8125 C-178.06931641 27.95785156 -177.20113281 27.10320312 -176.30664062 26.22265625 C-174.68526734 24.62741408 -173.06083226 23.03527365 -171.43237305 21.44726562 C-169.35666131 19.41683454 -167.2992434 17.36960607 -165.25 15.3125 C-164.26 15.9725 -163.27 16.6325 -162.25 17.3125 C-162.05480051 20.22765791 -162.04358926 22.91558105 -162.17578125 25.8203125 C-162.21544258 27.08124222 -162.21544258 27.08124222 -162.25590515 28.36764526 C-162.34382985 31.05830647 -162.4529203 33.74764201 -162.5625 36.4375 C-162.62574211 38.25906675 -162.68760871 40.08068181 -162.74804688 41.90234375 C-162.89681104 46.37342003 -163.07414927 50.84207791 -163.25 55.3125 C-156.65 55.3125 -150.05 55.3125 -143.25 55.3125 C-143.2809375 50.98125 -143.2809375 50.98125 -143.3125 46.5625 C-143.300979 45.65918945 -143.28945801 44.75587891 -143.27758789 43.82519531 C-143.3528241 41.4795033 -143.50695711 39.54541143 -144.25 37.3125 C-146.4898036 35.27987317 -148.40105347 34.48959028 -151.25 33.3125 C-150.71701805 29.2621844 -148.71581487 27.44328163 -145.84765625 24.65234375 C-144.95755859 23.77642578 -144.06746094 22.90050781 -143.15039062 21.99804688 C-142.21388672 21.09119141 -141.27738281 20.18433594 -140.3125 19.25 C-138.46793676 17.44877826 -136.62539344 15.64548501 -134.78515625 13.83984375 C-133.964104 13.04312256 -133.14305176 12.24640137 -132.29711914 11.42553711 C-130.10385911 9.28889111 -130.10385911 9.28889111 -128.25 6.3125 C-127.26 6.6425 -126.27 6.9725 -125.25 7.3125 C-125.25 23.1525 -125.25 38.9925 -125.25 55.3125 C-119.31 55.3125 -113.37 55.3125 -107.25 55.3125 C-107.25598831 50.89312446 -107.30322942 46.48087636 -107.375 42.0625 C-107.37113281 40.18111328 -107.37113281 40.18111328 -107.3671875 38.26171875 C-107.21335941 32.02372149 -107.21335941 32.02372149 -109.64355469 26.56054688 C-111.4324038 25.2812879 -111.4324038 25.2812879 -114.25 24.3125 C-113.83920857 19.86752611 -110.75685872 17.56638845 -107.6875 14.6875 C-102.96286277 10.13886625 -98.78768407 5.45686111 -94.87109375 0.17578125 C-93.25 -1.6875 -93.25 -1.6875 -90.25 -2.6875 C-89.25 -1.6875 -89.25 -1.6875 -89.12974548 0.59669495 C-89.13196609 1.60707321 -89.13418671 2.61745148 -89.13647461 3.65844727 C-89.13655014 4.7995546 -89.13662567 5.94066193 -89.13670349 7.11634827 C-89.14186478 8.3579924 -89.14702606 9.59963654 -89.15234375 10.87890625 C-89.15446617 12.77454567 -89.15446617 12.77454567 -89.15663147 14.70848083 C-89.16129418 18.07374889 -89.1702852 21.4389499 -89.18133545 24.80419922 C-89.19155154 28.2359967 -89.19612951 31.66780109 -89.20117188 35.09960938 C-89.2122262 41.83725824 -89.2289829 48.57487525 -89.25 55.3125 C-88.21311035 55.2403125 -87.1762207 55.168125 -86.10791016 55.09375 C-77.44272756 54.5313774 -68.83219273 54.25922888 -60.1484375 54.3125 C-57.27652183 54.31225436 -54.40462695 54.30857343 -51.53271484 54.30419922 C-49.57624184 54.30978445 -47.61976206 54.32990313 -45.66357422 54.36376953 C-34.50796548 54.94406925 -34.50796548 54.94406925 -24.28930664 51.42895508 C-22.25258985 49.1589309 -20.74712676 46.96139232 -19.25 44.3125 C-18.44949219 43.34699219 -17.64898437 42.38148438 -16.82421875 41.38671875 C-15.89029297 40.20529297 -15.89029297 40.20529297 -14.9375 39 C-13.98423828 37.79923828 -13.98423828 37.79923828 -13.01171875 36.57421875 C-12.13966797 35.45466797 -12.13966797 35.45466797 -11.25 34.3125 C-10.69441406 33.61511719 -10.13882812 32.91773438 -9.56640625 32.19921875 C-7.13302754 28.71161662 -7.19897773 25.19688605 -7.4375 21.0625 C-7.9651372 18.26130875 -7.9651372 18.26130875 -9.9375 17.0625 C-10.700625 16.815 -11.46375 16.5675 -12.25 16.3125 C-13.136875 15.920625 -14.02375 15.52875 -14.9375 15.125 C-19.22858832 14.0724689 -22.9833308 14.11144942 -27.25 15.3125 C-29.21287824 17.22988855 -29.21287824 17.22988855 -30.25 19.3125 C-30.91 19.3125 -31.57 19.3125 -32.25 19.3125 C-32.25 23.9325 -32.25 28.5525 -32.25 33.3125 C-30.93 33.9725 -29.61 34.6325 -28.25 35.3125 C-28.25 40.1077637 -29.23992913 40.98804084 -32.25 44.5625 C-33.36375 45.90054688 -33.36375 45.90054688 -34.5 47.265625 C-35.0775 47.94109375 -35.655 48.6165625 -36.25 49.3125 C-41.01920856 48.53105873 -44.08071035 46.98920872 -47.25 43.3125 C-52.45073186 34.69573784 -54.96466216 26.46509074 -52.56640625 16.4609375 C-50.18946009 9.30051046 -47.36599079 3.61279292 -40.62890625 -0.15234375 C-37.8693145 -1.44414721 -35.09173907 -2.59023725 -32.25 -3.6875 C-30.7959375 -4.3371875 -30.7959375 -4.3371875 -29.3125 -5 C-18.54099485 -7.41809299 -9.5870347 -4.9778834 0 0 Z M-342.10546875 35.6875 C-346.06697177 39.91310322 -347.91298853 44.53224264 -348.25 50.3125 C-347.92 51.9625 -347.59 53.6125 -347.25 55.3125 C-341.31 55.3125 -335.37 55.3125 -329.25 55.3125 C-329.25 47.7225 -329.25 40.1325 -329.25 32.3125 C-333.81878968 32.3125 -338.37019431 32.91946505 -342.10546875 35.6875 Z " fill="#100E0C" transform="translate(404.25,226.6875)"/>
<path d="M0 0 C6.68122755 5.61830498 10.94243206 11.53019864 11.75 20.3125 C11.8428125 21.19035156 11.935625 22.06820312 12.03125 22.97265625 C12.78120168 36.30304738 5.27505866 43.08242961 -3.25 53.3125 C20.51 53.6425 44.27 53.9725 68.75 54.3125 C68.42 46.3925 68.09 38.4725 67.75 30.3125 C66.43 29.3225 65.11 28.3325 63.75 27.3125 C64.23434542 22.80764137 65.69461327 20.90737605 68.93359375 17.80859375 C70.20106445 16.57399414 70.20106445 16.57399414 71.49414062 15.31445312 C72.82735352 14.04504883 72.82735352 14.04504883 74.1875 12.75 C75.9406406 11.06581031 77.68953036 9.37718159 79.43359375 7.68359375 C80.21275146 6.94036865 80.99190918 6.19714355 81.79467773 5.43139648 C83.62303314 3.45008839 84.70700835 1.77892593 85.75 -0.6875 C86.41 -0.6875 87.07 -0.6875 87.75 -0.6875 C87.75 24.0625 87.75 48.8125 87.75 74.3125 C55.41 74.3125 23.07 74.3125 -10.25 74.3125 C-10.58 73.3225 -10.91 72.3325 -11.25 71.3125 C-12.24 70.9825 -13.23 70.6525 -14.25 70.3125 C-14.58 69.6525 -14.91 68.9925 -15.25 68.3125 C-17.7646547 69.39020916 -19.21928225 70.27743644 -21.04361129 72.35986304 C-23.8191473 74.81619097 -25.13878719 74.8103535 -28.80221939 74.80469131 C-29.93880375 74.81265551 -31.07538811 74.8206197 -32.24641442 74.82882524 C-33.49543031 74.81717387 -34.74444619 74.8055225 -36.03131104 74.79351807 C-37.37120189 74.79526208 -38.71109141 74.79876387 -40.05097365 74.80387473 C-43.73622043 74.81283213 -47.42100348 74.79680105 -51.10619116 74.77676249 C-55.07889141 74.75951265 -59.05156483 74.76533243 -63.02429199 74.76837158 C-69.90839093 74.77047051 -76.7923384 74.75790464 -83.67639923 74.73542023 C-93.62960905 74.70293263 -103.58274551 74.69249654 -113.53600261 74.68746826 C-129.683874 74.67871051 -145.83166465 74.65208193 -161.97949219 74.61425781 C-177.66698807 74.57755013 -193.35446203 74.54923229 -209.04199219 74.53222656 C-210.4920957 74.53065022 -210.4920957 74.53065022 -211.97149423 74.52904204 C-216.82125064 74.52382194 -221.6710072 74.5187671 -226.52076387 74.51379442 C-266.76389877 74.47231745 -307.00694477 74.40185597 -347.25 74.3125 C-347.30986084 74.92665771 -347.36972168 75.54081543 -347.43139648 76.17358398 C-347.51462158 76.98126221 -347.59784668 77.78894043 -347.68359375 78.62109375 C-347.76407959 79.42087646 -347.84456543 80.22065918 -347.92749023 81.04467773 C-348.30283858 83.68404998 -349.09055607 85.91631587 -350.25 88.3125 C-351.25 85.3125 -351.25 85.3125 -348.25 73.3125 C-257.17 73.3125 -166.09 73.3125 -72.25 73.3125 C-72.25 67.3725 -72.25 61.4325 -72.25 55.3125 C-71.25 54.3125 -71.25 54.3125 -69.51316833 54.21484375 C-68.75786331 54.22644531 -68.00255829 54.23804688 -67.22436523 54.25 C-65.9418412 54.26365601 -65.9418412 54.26365601 -64.63340759 54.27758789 C-63.23512474 54.29486938 -63.23512474 54.29486938 -61.80859375 54.3125 C-59.84309887 54.3136592 -57.87760115 54.31227413 -55.91210938 54.30859375 C-52.80607847 54.3041863 -49.70305439 54.31224193 -46.59741211 54.36376953 C-34.93994314 54.98060262 -34.93994314 54.98060262 -24.21459961 51.42895508 C-22.18358307 49.15632534 -20.71300817 46.97749692 -19.25 44.3125 C-18.44949219 43.34699219 -17.64898437 42.38148438 -16.82421875 41.38671875 C-15.89029297 40.20529297 -15.89029297 40.20529297 -14.9375 39 C-13.98423828 37.79923828 -13.98423828 37.79923828 -13.01171875 36.57421875 C-12.13966797 35.45466797 -12.13966797 35.45466797 -11.25 34.3125 C-10.69441406 33.61511719 -10.13882812 32.91773438 -9.56640625 32.19921875 C-7.13302754 28.71161662 -7.19897773 25.19688605 -7.4375 21.0625 C-7.9651372 18.26130875 -7.9651372 18.26130875 -9.9375 17.0625 C-10.700625 16.815 -11.46375 16.5675 -12.25 16.3125 C-13.136875 15.920625 -14.02375 15.52875 -14.9375 15.125 C-19.22858832 14.0724689 -22.9833308 14.11144942 -27.25 15.3125 C-29.21287824 17.22988855 -29.21287824 17.22988855 -30.25 19.3125 C-30.91 19.3125 -31.57 19.3125 -32.25 19.3125 C-32.25 23.9325 -32.25 28.5525 -32.25 33.3125 C-30.93 33.9725 -29.61 34.6325 -28.25 35.3125 C-28.25 40.1077637 -29.23992913 40.98804084 -32.25 44.5625 C-33.36375 45.90054688 -33.36375 45.90054688 -34.5 47.265625 C-35.0775 47.94109375 -35.655 48.6165625 -36.25 49.3125 C-41.01920856 48.53105873 -44.08071035 46.98920872 -47.25 43.3125 C-52.45073186 34.69573784 -54.96466216 26.46509074 -52.56640625 16.4609375 C-50.18946009 9.30051046 -47.36599079 3.61279292 -40.62890625 -0.15234375 C-37.8693145 -1.44414721 -35.09173907 -2.59023725 -32.25 -3.6875 C-30.7959375 -4.3371875 -30.7959375 -4.3371875 -29.3125 -5 C-18.54099485 -7.41809299 -9.5870347 -4.9778834 0 0 Z " fill="#171512" transform="translate(404.25,226.6875)"/>
<path d="M0 0 C3.46794591 1.32089999 4.94157823 2.80866957 7.27734375 5.66796875 C7.96570313 6.49425781 8.6540625 7.32054687 9.36328125 8.171875 C9.87117188 8.80996094 10.3790625 9.44804687 10.90234375 10.10546875 C11.98752486 9.19099029 13.07039113 8.27376468 14.15234375 7.35546875 C14.796875 6.81277344 15.44140625 6.27007812 16.10546875 5.7109375 C18.03946886 4.06581151 18.03946886 4.06581151 19.90234375 1.66796875 C21.90234375 0.10546875 21.90234375 0.10546875 25.21484375 -0.14453125 C30.40447132 1.61466454 33.16820739 4.38649288 35.90234375 9.10546875 C36.89854057 12.38437943 36.9039559 14.82746535 35.90234375 18.10546875 C33.2956082 22.48952399 30.45862778 25.42070378 25.77734375 27.48046875 C22.90234375 27.10546875 22.90234375 27.10546875 20.33984375 24.48046875 C19.9428125 23.92875 19.54578125 23.37703125 19.13671875 22.80859375 C17.3147164 20.29469178 15.1258617 18.26545762 12.90234375 16.10546875 C8.89942196 17.43977601 7.33962518 20.05826601 5.1484375 23.44921875 C3.90234375 25.10546875 3.90234375 25.10546875 0.90234375 27.10546875 C-3.2476832 26.93146343 -5.47572935 24.16074583 -8.28515625 21.35546875 C-9.16558594 20.494375 -10.04601562 19.63328125 -10.953125 18.74609375 C-14.26224141 14.67148047 -14.26224141 14.67148047 -14.09765625 11.10546875 C-12.4663066 8.82704745 -11.02094918 7.14290118 -9.03515625 5.23046875 C-8.55626953 4.72 -8.07738281 4.20953125 -7.58398438 3.68359375 C-5.04540488 1.16880282 -3.61213849 0.1229858 0 0 Z " fill="#060303" transform="translate(456.09765625,186.89453125)"/>
<path d="M0 0 C3.03912173 1.4603572 4.90722772 3.26922639 7.21875 5.71875 C8.00894531 6.54503906 8.79914063 7.37132812 9.61328125 8.22265625 C10.20496094 8.86074219 10.79664063 9.49882812 11.40625 10.15625 C15.75418348 8.31226035 18.27478559 5.27320899 21.40625 1.8359375 C23.40625 0.15625 23.40625 0.15625 27.40625 0.15625 C27.40625 0.81625 27.40625 1.47625 27.40625 2.15625 C27.98761719 2.41792969 28.56898438 2.67960938 29.16796875 2.94921875 C31.53985331 4.22829786 33.26707611 5.615687 35.21875 7.46875 C35.84394531 8.04238281 36.46914063 8.61601562 37.11328125 9.20703125 C38.40625 11.15625 38.40625 11.15625 38.38671875 13.59375 C37.1441725 16.84120156 35.44185967 18.48065807 32.90625 20.84375 C29.73428323 23.6848257 29.73428323 23.6848257 27.40625 27.15625 C23.08894587 26.68215352 21.06977539 24.12228297 18.15625 21.09375 C17.26421875 20.17464844 16.3721875 19.25554687 15.453125 18.30859375 C14.77765625 17.59832031 14.1021875 16.88804687 13.40625 16.15625 C9.11411554 17.95405193 7.02728718 20.80981009 4.1875 24.37890625 C2.20245448 26.3595986 1.20760902 27.04596027 -1.59375 27.15625 C-3.296875 26.01171875 -3.296875 26.01171875 -4.84375 24.34375 C-5.62492187 23.52970703 -5.62492187 23.52970703 -6.421875 22.69921875 C-7.59375 21.15625 -7.59375 21.15625 -7.59375 19.15625 C-8.191875 18.929375 -8.79 18.7025 -9.40625 18.46875 C-12.1567009 16.81847946 -13.03872245 14.91430745 -14.59375 12.15625 C-12.71547593 10.1162107 -10.81916638 8.10085453 -8.90625 6.09375 C-8.37580078 5.51302734 -7.84535156 4.93230469 -7.29882812 4.33398438 C-3.31109503 0.19946356 -3.31109503 0.19946356 0 0 Z " fill="#26221C" transform="translate(368.59375,186.84375)"/>
<path d="M0 0 C1.13199353 0.9080162 2.25532363 1.82683826 3.375 2.75 C4.00148437 3.26046875 4.62796875 3.7709375 5.2734375 4.296875 C7 6 7 6 8.0390625 8.140625 C8.91104318 10.35790369 8.91104318 10.35790369 12 11 C13.125 16.75 13.125 16.75 12 19 C11.01 19 10.02 19 9 19 C9 20.32 9 21.64 9 23 C7.68 23.33 6.36 23.66 5 24 C5 24.66 5 25.32 5 26 C3.35 26.66 1.7 27.32 0 28 C-0.51949219 27.54109375 -1.03898437 27.0821875 -1.57421875 26.609375 C-5.31712166 23.31617392 -9.06978801 20.07047811 -13 17 C-13.94875 17.763125 -14.8975 18.52625 -15.875 19.3125 C-16.40867188 19.74175781 -16.94234375 20.17101562 -17.4921875 20.61328125 C-19.25292107 22.12270545 -19.25292107 22.12270545 -21 25 C-21.66 25 -22.32 25 -23 25 C-23.33 25.99 -23.66 26.98 -24 28 C-28.42761914 26.60846256 -30.9556255 24.47928514 -34 21 C-34 20.34 -34 19.68 -34 19 C-34.99 18.67 -35.98 18.34 -37 18 C-38.1875 15.9375 -38.1875 15.9375 -39 14 C-37.56760415 12.20425007 -36.1288996 10.41353093 -34.6875 8.625 C-33.88699219 7.62726563 -33.08648437 6.62953125 -32.26171875 5.6015625 C-30 3 -30 3 -27 1 C-22.7431916 1.13414312 -20.55039361 4.15156454 -17.75 7.0625 C-16.85796875 7.98160156 -15.9659375 8.90070313 -15.046875 9.84765625 C-14.37140625 10.55792969 -13.6959375 11.26820313 -13 12 C-11.87105124 11.06725891 -10.74699124 10.12859878 -9.625 9.1875 C-8.99851563 8.66542969 -8.37203125 8.14335937 -7.7265625 7.60546875 C-5.7778952 5.91774261 -5.7778952 5.91774261 -4 3 C-3.34 3 -2.68 3 -2 3 C-2 2.34 -2 1.68 -2 1 C-1.34 0.67 -0.68 0.34 0 0 Z " fill="#231F1A" transform="translate(159,317)"/>
<path d="M0 0 C1.13199353 0.9080162 2.25532363 1.82683826 3.375 2.75 C4.00148437 3.26046875 4.62796875 3.7709375 5.2734375 4.296875 C7 6 7 6 8.0390625 8.140625 C8.91104318 10.35790369 8.91104318 10.35790369 12 11 C11.51081032 15.37977635 10.20875769 17.22512907 7 20.1875 C4.10148878 22.7956543 4.10148878 22.7956543 2 26 C-2.31730413 25.52590352 -4.33647461 22.96603297 -7.25 19.9375 C-8.14203125 19.01839844 -9.0340625 18.09929687 -9.953125 17.15234375 C-10.62859375 16.44207031 -11.3040625 15.73179687 -12 15 C-6.11627907 5.41860465 -6.11627907 5.41860465 -4 3 C-3.34 3 -2.68 3 -2 3 C-2 2.34 -2 1.68 -2 1 C-1.34 0.67 -0.68 0.34 0 0 Z " fill="#191412" transform="translate(159,317)"/>
<path d="M0 0 C2.65373872 1.70035851 4.66459371 3.71722882 6.859375 5.9765625 C7.65859375 6.79382813 8.4578125 7.61109375 9.28125 8.453125 C9.88453125 9.07960937 10.4878125 9.70609375 11.109375 10.3515625 C9.57293648 14.03226137 7.32786555 16.33931454 4.484375 19.1015625 C3.66710937 19.90078125 2.84984375 20.7 2.0078125 21.5234375 C1.38132812 22.12671875 0.75484375 22.73 0.109375 23.3515625 C-3.31343017 21.88574235 -5.45542983 19.97093995 -8.015625 17.2890625 C-10.669675 14.43584317 -10.669675 14.43584317 -13.890625 12.3515625 C-13.32801388 8.55819963 -11.72263653 6.80662137 -9.015625 4.1640625 C-7.96761719 3.12185547 -7.96761719 3.12185547 -6.8984375 2.05859375 C-4.57065367 0.07952462 -3.03273884 -1.04015423 0 0 Z " fill="#0F0C09" transform="translate(455.890625,188.6484375)"/>
<path d="M0 0 C3.68069887 1.53643852 5.98775204 3.78150945 8.75 6.625 C9.54921875 7.44226563 10.3484375 8.25953125 11.171875 9.1015625 C11.77515625 9.72804687 12.3784375 10.35453125 13 11 C11.55575365 14.23861303 9.74227753 16.61969163 7.375 19.25 C6.74335938 19.95640625 6.11171875 20.6628125 5.4609375 21.390625 C4.97882813 21.92171875 4.49671875 22.4528125 4 23 C3.01 22.67 2.02 22.34 1 22 C0.67 22.66 0.34 23.32 0 24 C-0.721875 23.236875 -1.44375 22.47375 -2.1875 21.6875 C-4.80827795 18.94977881 -4.80827795 18.94977881 -7.75 17.5 C-10 16 -10 16 -10.98046875 13.76953125 C-11 11 -11 11 -8.69140625 8.10546875 C-7.66327784 7.11713886 -6.61954107 6.14484433 -5.5625 5.1875 C-5.03333984 4.68541016 -4.50417969 4.18332031 -3.95898438 3.66601562 C-2.65239036 2.43004832 -1.32783937 1.21311405 0 0 Z " fill="#0B0606" transform="translate(367,188)"/>
<path d="M0 0 C6.81582775 1.66239701 10.9583324 5.51689076 15.3125 10.8125 C19.06436298 17.89935229 20.04711321 26.0734656 19 34 C16.27627715 42.84864277 9.89908707 48.92109552 4 56 C27.76 56.33 51.52 56.66 76 57 C75.505 44.625 75.505 44.625 75 32 C75.66 32 76.32 32 77 32 C77 40.58 77 49.16 77 58 C51.59 58 26.18 58 0 58 C2.60694989 54.08957517 5.02168345 50.67338495 8 47.125 C14.96193539 38.38361471 17.13083045 32.39419032 16 21 C14.75833768 13.91167531 10.16332911 8.79451989 5 4 C3.34523736 2.98042245 1.68121671 1.97534001 0 1 C0 0.67 0 0.34 0 0 Z " fill="#E3DBAF" transform="translate(397,224)"/>
<path d="M0 0 C5.31685454 1.74006148 8.02695681 5.84018051 11.4375 10.125 C11.89640625 9.72667969 12.3553125 9.32835937 12.828125 8.91796875 C15.96021585 6.21357938 19.07627459 3.54508229 22.4375 1.125 C21.04116893 4.31059952 19.39192507 6.36443845 16.875 8.75 C14.29734611 11.17021959 14.29734611 11.17021959 12.4375 14.125 C13.00984375 14.36992187 13.5821875 14.61484375 14.171875 14.8671875 C16.81774402 16.33610099 18.58603139 18.07848244 20.6875 20.25 C21.39390625 20.97445312 22.1003125 21.69890625 22.828125 22.4453125 C23.35921875 22.99960938 23.8903125 23.55390625 24.4375 24.125 C27.30043173 22.82145236 28.76557153 21.79692847 31.0625 19.5 C31.84625 18.71625 32.63 17.9325 33.4375 17.125 C34.0975 17.125 34.7575 17.125 35.4375 17.125 C33.39296838 21.72519614 31.29774311 25.37298683 26.5 27.3125 C23.4375 27.125 23.4375 27.125 20.875 24.5 C20.47796875 23.94828125 20.0809375 23.3965625 19.671875 22.828125 C17.84987265 20.31422303 15.66101795 18.28498887 13.4375 16.125 C9.43457821 17.45930726 7.87478143 20.07779726 5.68359375 23.46875 C4.4375 25.125 4.4375 25.125 1.4375 27.125 C-2.8193084 26.99085688 -5.01210639 23.97343546 -7.8125 21.0625 C-8.70453125 20.14339844 -9.5965625 19.22429687 -10.515625 18.27734375 C-11.19109375 17.56707031 -11.8665625 16.85679687 -12.5625 16.125 C-12.2325 15.465 -11.9025 14.805 -11.5625 14.125 C-8.2625 17.425 -4.9625 20.725 -1.5625 24.125 C2.10521845 22.29114077 3.90584996 20.87437171 6.6875 18 C7.74710937 16.91332031 7.74710937 16.91332031 8.828125 15.8046875 C9.35921875 15.25039062 9.8903125 14.69609375 10.4375 14.125 C8.98003764 10.78185181 7.12765913 8.5171789 4.5625 5.9375 C3.88445312 5.24269531 3.20640625 4.54789063 2.5078125 3.83203125 C0.40663968 2.0995548 -0.90352145 1.52444297 -3.5625 1.125 C-2.5625 0.125 -2.5625 0.125 0 0 Z " fill="#ADA983" transform="translate(455.5625,186.875)"/>
<path d="M0 0 C4.1610986 1.53303633 5.53935571 2.30903357 8 6 C7.46375 5.71125 6.9275 5.4225 6.375 5.125 C0.40289677 2.29610899 -4.53795368 1.1809594 -11 3 C-12.96287824 4.91738855 -12.96287824 4.91738855 -14 7 C-14.66 7 -15.32 7 -16 7 C-16 11.62 -16 16.24 -16 21 C-14.68 21.66 -13.36 22.32 -12 23 C-12 27.7952637 -12.98992913 28.67554084 -16 32.25 C-16.7425 33.14203125 -17.485 34.0340625 -18.25 34.953125 C-18.8275 35.62859375 -19.405 36.3040625 -20 37 C-22.375 36.6875 -22.375 36.6875 -25 36 C-25.66 35.01 -26.32 34.02 -27 33 C-26.154375 33.33 -25.30875 33.66 -24.4375 34 C-21.0125731 34.36857759 -21.0125731 34.36857759 -19.04296875 32.35546875 C-15.38952515 28.67483441 -15.38952515 28.67483441 -14 24 C-14.825 23.360625 -15.65 22.72125 -16.5 22.0625 C-19.7011753 18.14106026 -19.77372757 15.68333545 -19.56640625 10.734375 C-18.66966289 6.4052691 -16.35872754 3.76703461 -13 1 C-9.07464858 -0.96267571 -4.28858139 -0.34478017 0 0 Z " fill="#CDC5A5" transform="translate(388,239)"/>
<path d="M0 0 C3.09146798 1.41196855 4.92113993 3.20788476 7.25 5.67578125 C8.04019531 6.50207031 8.83039063 7.32835937 9.64453125 8.1796875 C10.23621094 8.81777344 10.82789063 9.45585937 11.4375 10.11328125 C14.37196886 8.69536562 16.87082409 7.12995518 19.4375 5.11328125 C18.14450306 7.99765904 16.77808637 9.98547546 14.4375 12.11328125 C14.870625 12.97953125 14.870625 12.97953125 15.3125 13.86328125 C16.875 16.98828125 16.875 16.98828125 18.4375 20.11328125 C16.7875 18.79328125 15.1375 17.47328125 13.4375 16.11328125 C9.14536554 17.91108318 7.05853718 20.76684134 4.21875 24.3359375 C2.23360155 26.31673255 1.24116191 27.0139389 -1.5625 27.11328125 C-3.265625 25.8984375 -3.265625 25.8984375 -4.8125 24.17578125 C-5.33328125 23.60988281 -5.8540625 23.04398438 -6.390625 22.4609375 C-6.77734375 22.01621094 -7.1640625 21.57148438 -7.5625 21.11328125 C-7.2325 20.45328125 -6.9025 19.79328125 -6.5625 19.11328125 C-4.9125 20.76328125 -3.2625 22.41328125 -1.5625 24.11328125 C3.29717024 21.60981476 6.71606704 18.02775684 10.4375 14.11328125 C8.96028578 10.66126486 6.99955999 8.46366189 4.3125 5.86328125 C3.58804687 5.156875 2.86359375 4.45046875 2.1171875 3.72265625 C1.56289063 3.1915625 1.00859375 2.66046875 0.4375 2.11328125 C-2.95806128 3.57504754 -5.12734963 5.46552117 -7.6875 8.11328125 C-8.37070312 8.81453125 -9.05390625 9.51578125 -9.7578125 10.23828125 C-10.35335938 10.85703125 -10.94890625 11.47578125 -11.5625 12.11328125 C-12.2225 12.77328125 -12.8825 13.43328125 -13.5625 14.11328125 C-13.5625 9.88844695 -11.19361583 8.19275183 -8.375 5.36328125 C-7.89224609 4.84378906 -7.40949219 4.32429687 -6.91210938 3.7890625 C-4.65293198 1.50259303 -3.28168964 0.14507469 0 0 Z " fill="#AEA48C" transform="translate(368.5625,186.88671875)"/>
<path d="M0 0 C0.99 0.33 1.98 0.66 3 1 C3 16.84 3 32.68 3 49 C2.34 49 1.68 49 1 49 C0.67 34.15 0.34 19.3 0 4 C-0.99 4 -1.98 4 -3 4 C-2.01 2.68 -1.02 1.36 0 0 Z " fill="#A9A18D" transform="translate(276,233)"/>
<path d="M0 0 C1.125 3.75 1.125 3.75 0 6 C-0.99 6 -1.98 6 -3 6 C-3 7.32 -3 8.64 -3 10 C-4.32 10.33 -5.64 10.66 -7 11 C-7 11.66 -7 12.32 -7 13 C-8.65 13.66 -10.3 14.32 -12 15 C-12.51949219 14.54109375 -13.03898438 14.0821875 -13.57421875 13.609375 C-19.86955602 7.71180646 -19.86955602 7.71180646 -27 3 C-25.31640625 2.1953125 -25.31640625 2.1953125 -23 2 C-20.52734375 4.0546875 -20.52734375 4.0546875 -17.9375 6.875 C-14.51273162 10.76619503 -14.51273162 10.76619503 -10 13 C-9.74347656 12.41476562 -9.48695313 11.82953125 -9.22265625 11.2265625 C-7.89437838 8.80765392 -6.43475199 7.26801128 -4.4375 5.375 C-1.85984611 2.95478041 -1.85984611 2.95478041 0 0 Z " fill="#BEB39F" transform="translate(171,330)"/>
<path d="M0 0 C2 3 2 3 2.375 5.5625 C2.74737559 8.16952088 2.74737559 8.16952088 5.0625 9.3125 C5.701875 9.539375 6.34125 9.76625 7 10 C7 14.7952637 6.01007087 15.67554084 3 19.25 C2.2575 20.14203125 1.515 21.0340625 0.75 21.953125 C0.1725 22.62859375 -0.405 23.3040625 -1 24 C-3.375 23.6875 -3.375 23.6875 -6 23 C-6.66 22.01 -7.32 21.02 -8 20 C-7.154375 20.33 -6.30875 20.66 -5.4375 21 C-2.0125731 21.36857759 -2.0125731 21.36857759 -0.04296875 19.35546875 C3.61047485 15.67483441 3.61047485 15.67483441 5 11 C4.175 10.2575 3.35 9.515 2.5 8.75 C0 6 0 6 -0.3125 2.6875 C-0.1578125 1.3571875 -0.1578125 1.3571875 0 0 Z " fill="#CCC29E" transform="translate(369,252)"/>
<path d="M0 0 C0.66 0 1.32 0 2 0 C3.7143618 1.95927063 5.38405168 3.95880212 7 6 C6.67 6.66 6.34 7.32 6 8 C4.68 6.68 3.36 5.36 2 4 C-2.29213446 5.79780193 -4.37896282 8.65356009 -7.21875 12.22265625 C-9.20389845 14.2034513 -10.19633809 14.90065765 -13 15 C-14.703125 13.78515625 -14.703125 13.78515625 -16.25 12.0625 C-16.77078125 11.49660156 -17.2915625 10.93070313 -17.828125 10.34765625 C-18.21484375 9.90292969 -18.6015625 9.45820313 -19 9 C-18.67 8.34 -18.34 7.68 -18 7 C-16.35 8.65 -14.7 10.3 -13 12 C-7.93370511 9.39009051 -2.59452971 5.18905942 0 0 Z " fill="#9D9775" transform="translate(380,199)"/>
<path d="M0 0 C0.66 0 1.32 0 2 0 C1.48817777 4.17917653 -0.76149845 6.10710028 -3.69140625 8.984375 C-4.15610825 9.44483215 -4.62081024 9.90528931 -5.09959412 10.37969971 C-6.58031819 11.84367811 -8.07114519 13.29686041 -9.5625 14.75 C-10.57034664 15.74279449 -11.57751633 16.7362767 -12.58398438 17.73046875 C-15.04819461 20.16166473 -17.52157329 22.58328868 -20 25 C-20.66 24.67 -21.32 24.34 -22 24 C-21.40461426 23.41508789 -20.80922852 22.83017578 -20.19580078 22.22753906 C-17.98145887 20.04735709 -15.77171133 17.86264862 -13.56494141 15.67480469 C-12.14182991 14.26665299 -10.7135208 12.86376045 -9.28515625 11.4609375 C-7.94130859 10.12675781 -7.94130859 10.12675781 -6.5703125 8.765625 C-5.74289551 7.94868164 -4.91547852 7.13173828 -4.06298828 6.29003906 C-2.20968942 4.23276766 -1.06333855 2.53369664 0 0 Z " fill="#A79078" transform="translate(490,226)"/>
<path d="M0 0 C3.80635497 3.20760251 7.54563567 6.40746109 11 10 C13.56490126 8.9007566 15.12843192 7.87156808 17.125 5.875 C17.74375 5.25625 18.3625 4.6375 19 4 C19.66 4 20.32 4 21 4 C19.4404735 7.82792868 17.16368164 10.36359864 14 13 C9.79189121 12.87465208 7.54888511 9.91458029 4.75 7.0625 C3.85796875 6.16660156 2.9659375 5.27070313 2.046875 4.34765625 C0 2 0 2 0 0 Z " fill="#C5B696" transform="translate(443,201)"/>
<path d="M0 0 C0.33 0 0.66 0 1 0 C1 5.28 1 10.56 1 16 C1.66 16 2.32 16 3 16 C3.625 18.375 3.625 18.375 4 21 C3.34 21.66 2.68 22.32 2 23 C-1.10162981 15.35669796 -2.2863688 8.05760616 0 0 Z " fill="#938A77" transform="translate(352,242)"/>
<path d="M0 0 C-1.54008325 3.46518731 -3.34925944 6.27562776 -6 9 C-9.25 9.8125 -9.25 9.8125 -12 10 C-10.33333333 8.33333333 -8.66666667 6.66666667 -7 5 C-6.113125 4.071875 -5.22625 3.14375 -4.3125 2.1875 C-2 0 -2 0 0 0 Z " fill="#D4BF89" transform="translate(491,204)"/>
<path d="M0 0 C-0.66 1.32 -1.32 2.64 -2 4 C-2.66 4 -3.32 4 -4 4 C-4.33 6.97 -4.66 9.94 -5 13 C-7 10 -7 10 -6.8125 6.5 C-5.7320442 1.84572887 -4.92308884 0 0 0 Z " fill="#E0D5BB" transform="translate(376,242)"/>
<path d="M0 0 C0.33 0.99 0.66 1.98 1 3 C0.01 3.721875 -0.98 4.44375 -2 5.1875 C-4.69218509 7.37283152 -4.69218509 7.37283152 -5.375 10.8125 C-5.25125 11.534375 -5.1275 12.25625 -5 13 C-6.32 12.67 -7.64 12.34 -9 12 C-8.45015228 8.12488273 -6.72444669 6.40423494 -3.9375 3.75 C-3.20402344 3.04359375 -2.47054688 2.3371875 -1.71484375 1.609375 C-1.14894531 1.07828125 -0.58304687 0.5471875 0 0 Z " fill="#564E3C" transform="translate(262,248)"/>
<path d="M0 0 C1.125 3.75 1.125 3.75 0 6 C-0.99 6 -1.98 6 -3 6 C-3 7.32 -3 8.64 -3 10 C-4.32 10.33 -5.64 10.66 -7 11 C-6.40716379 7.60807637 -5.23256811 5.7892243 -2.9375 3.25 C-2.38964844 2.63640625 -1.84179688 2.0228125 -1.27734375 1.390625 C-0.85582031 0.93171875 -0.43429688 0.4728125 0 0 Z " fill="#E0DCC4" transform="translate(171,330)"/>
<path d="M0 0 C5.31685454 1.74006148 8.02695681 5.84018051 11.4375 10.125 C11.1075 10.785 10.7775 11.445 10.4375 12.125 C9.76203125 11.41472656 9.0865625 10.70445312 8.390625 9.97265625 C7.49859375 9.05355469 6.6065625 8.13445312 5.6875 7.1875 C4.80578125 6.27097656 3.9240625 5.35445312 3.015625 4.41015625 C0.63573305 2.30070657 -0.4724375 1.46432929 -3.5625 1.125 C-2.5625 0.125 -2.5625 0.125 0 0 Z " fill="#AA9F7C" transform="translate(455.5625,186.875)"/>
<path d="M0 0 C0.66 0.99 1.32 1.98 2 3 C1.34 3 0.68 3 0 3 C0 4.65 0 6.3 0 8 C-2.31 8.66 -4.62 9.32 -7 10 C-6.57847656 9.44570313 -6.15695313 8.89140625 -5.72265625 8.3203125 C-5.17480469 7.59585937 -4.62695312 6.87140625 -4.0625 6.125 C-3.51722656 5.40570313 -2.97195312 4.68640625 -2.41015625 3.9453125 C-0.96035376 2.05642921 -0.96035376 2.05642921 0 0 Z " fill="#5C5041" transform="translate(32,317)"/>
<path d="M0 0 C0.66 0.66 1.32 1.32 2 2 C1.67 2.99 1.34 3.98 1 5 C0.34 5 -0.32 5 -1 5 C-1.433125 5.45375 -1.86625 5.9075 -2.3125 6.375 C-4.35628817 8.34309231 -6.34530324 9.06726871 -9 10 C-8.06409496 8.8944811 -7.12620142 7.79064547 -6.1875 6.6875 C-5.66542969 6.07261719 -5.14335937 5.45773437 -4.60546875 4.82421875 C-3.12827531 3.14575321 -1.59960869 1.56117966 0 0 Z " fill="#53504A" transform="translate(230,251)"/>
<path d="M0 0 C6.4 0.49230769 6.4 0.49230769 9.4375 3.0625 C10.2109375 4.0215625 10.2109375 4.0215625 11 5 C10.67 5.66 10.34 6.32 10 7 C3.125 4.25 3.125 4.25 2 2 C1.34 2 0.68 2 0 2 C0 1.34 0 0.68 0 0 Z " fill="#685B2B" transform="translate(478,187)"/>
<path d="M0 0 C2.475 0.495 2.475 0.495 5 1 C5.061875 1.53625 5.12375 2.0725 5.1875 2.625 C6.38027382 6.11156962 8.56197166 8.24940393 11 11 C7.63820226 9.55922954 5.40843732 7.75249979 3 5 C3 4.34 3 3.68 3 3 C2.01 2.67 1.02 2.34 0 2 C0 1.34 0 0.68 0 0 Z " fill="#ADAA9C" transform="translate(122,333)"/>
<path d="M0 0 C0.66 0 1.32 0 2 0 C0.6302836 3.99500618 -1.25722422 6.80009492 -4 10 C-4.99 9.67 -5.98 9.34 -7 9 C-5.88266271 7.49428343 -4.75589965 5.99555708 -3.625 4.5 C-2.99851562 3.6646875 -2.37203125 2.829375 -1.7265625 1.96875 C-1.15679687 1.3190625 -0.58703125 0.669375 0 0 Z " fill="#C9C9AA" transform="translate(404,272)"/>
<path d="M0 0 C0.33 0.99 0.66 1.98 1 3 C-0.40445835 5.2636564 -2.1967913 7.0208685 -4 9 C-5.32 8.67 -6.64 8.34 -8 8 C-5.36 5.36 -2.72 2.72 0 0 Z " fill="#4B4139" transform="translate(300,238)"/>
<path d="M0 0 C0.66 0.33 1.32 0.66 2 1 C1.67 1.66 1.34 2.32 1 3 C-0.32 3 -1.64 3 -3 3 C-3.33 3.99 -3.66 4.98 -4 6 C-6.5625 7.1875 -6.5625 7.1875 -9 8 C-7.94660446 4.72276944 -6.36236741 3.39539906 -3.5 1.6875 C-2.345 1.130625 -1.19 0.57375 0 0 Z " fill="#5F5842" transform="translate(367,225)"/>
<path d="M0 0 C1.485 0.99 1.485 0.99 3 2 C3.29296875 4.1640625 3.29296875 4.1640625 3.1875 6.625 C3.16042969 7.44226563 3.13335937 8.25953125 3.10546875 9.1015625 C3.07066406 9.72804687 3.03585937 10.35453125 3 11 C2.01 10.34 1.02 9.68 0 9 C0 7.68 0 6.36 0 5 C-0.33 4.34 -0.66 3.68 -1 3 C-0.67 2.01 -0.34 1.02 0 0 Z " fill="#5A4A2F" transform="translate(489,194)"/>
<path d="M0 0 C0.33 0.99 0.66 1.98 1 3 C-0.65 4.65 -2.3 6.3 -4 8 C-4.99 7.67 -5.98 7.34 -7 7 C-4.69 4.69 -2.38 2.38 0 0 Z " fill="#4D4437" transform="translate(272,238)"/>
<path d="M0 0 C0.33 1.32 0.66 2.64 1 4 C-0.8125 5.5625 -0.8125 5.5625 -3 7 C-3.99 6.67 -4.98 6.34 -6 6 C-2.25 1.125 -2.25 1.125 0 0 Z " fill="#5D544F" transform="translate(131,319)"/>
<path d="M0 0 C0 3.65351863 -0.88942301 5.06026776 -3 8 C-5.1875 9.3125 -5.1875 9.3125 -7 10 C-5.33248852 6.05860922 -2.77289351 3.2107188 0 0 Z " fill="#7D7A5C" transform="translate(389,266)"/>
<path d="M0 0 C0 3.59857954 -0.95830515 5.09451118 -3 8 C-3.66 8 -4.32 8 -5 8 C-4.45773019 4.20411134 -2.79872437 2.52788007 0 0 Z " fill="#595747" transform="translate(220,261)"/>
<path d="M0 0 C-0.33 0.99 -0.66 1.98 -1 3 C-3.47739354 3.90837763 -5.33579484 4 -8 4 C-4.5 0 -4.5 0 0 0 Z " fill="#817864" transform="translate(396,187)"/>
</svg>
